<?xml version="1.0" encoding="utf-8" ?><svg xmlns="http://www.w3.org/2000/svg" xmlns:xlink="http://www.w3.org/1999/xlink" width="1024" height="1024" viewBox="0 0 1024 1024" xmlns:c2pa="http://c2pa.org/manifest"><metadata><c2pa:manifest>AAAgRWp1bWIAAAAeanVtZGMycGEAEQAQgAAAqgA4m3EDYzJwYQAAAAxBanVtYgAAAEdqdW1kYzJtYQARABCAAACqADibcQN1cm46YzJwYToyMDc1OWEzZS1mNjgzLTRmZWEtYmQzMC0wODdmMjU0ZTJhZjQAAAAB4mp1bWIAAAApanVtZGMyYXMAEQAQgAAAqgA4m3EDYzJwYS5hc3NlcnRpb25zAAAAAO1qdW1iAAAAQWp1bWRjYm9yABEAEIAAAKoAOJtxE2MycGEuYWN0aW9ucy52MgAAAAAYYzJzaFmh0JaTAntM5hvgz4PJF3cAAACkY2JvcqFnYWN0aW9uc4GjZmFjdGlvbmxjMnBhLmNyZWF0ZWRxZGlnaXRhbFNvdXJjZVR5cGV4Rmh0dHA6Ly9jdi5pcHRjLm9yZy9uZXdzY29kZXMvZGlnaXRhbHNvdXJjZXR5cGUvdHJhaW5lZEFsZ29yaXRobWljTWVkaWFrZGVzY3JpcHRpb252Q3JlYXRlZCBieSBSZWNyYWZ0IEFJLgAAAMRqdW1iAAAAQGp1bWRjYm9yABEAEIAAAKoAOJtxE2MycGEuaGFzaC5kYXRhAAAAABhjMnNo5UhfeoefbaPvrrSHcNZjvQAAAHxjYm9ypWpleGNsdXNpb25zgaJlc3RhcnQY22ZsZW5ndGgZEIxkbmFtZW5qdW1iZiBtYW5pZmVzdGNhbGdmc2hhMjU2ZGhhc2hYIIfioKx3KjjW+0caoroHt/83niZklL+wckmSDu7sMwqaY3BhZEkAAAAAAAAAAAAAAAI0anVtYgAAACdqdW1kYzJjbAARABCAAACqADibcQNjMnBhLmNsYWltLnYyAAAAAgVjYm9ypmppbnN0YW5jZUlEeCx4bXA6aWlkOmY4MmFlMWVkLTE0NjUtNDM0YS1iYWZlLTNmMTFiMjYyNmUwMHRjbGFpbV9nZW5lcmF0b3JfaW5mb6NkbmFtZWpyZWNyYWZ0LmFpZ3ZlcnNpb254KDgxY2U4MmUyYzVjM2NiZmJlOGM2ZmJlMTc5ZDVmOGQ5MWM0MDljZTF3b3JnLmNvbnRlbnRhdXRoLmMycGFfcnNmMC45MC43aXNpZ25hdHVyZXhNc2VsZiNqdW1iZj0vYzJwYS91cm46YzJwYToyMDc1OWEzZS1mNjgzLTRmZWEtYmQzMC0wODdmMjU0ZTJhZjQvYzJwYS5zaWduYXR1cmVyY3JlYXRlZF9hc3NlcnRpb25zgqJjdXJseCpzZWxmI2p1bWJmPWMycGEuYXNzZXJ0aW9ucy9jMnBhLmFjdGlvbnMudjJkaGFzaFggaWyMpBRpshKuSBjPIL84qmg9BYnaCXxlks6ewKyR+u2iY3VybHgpc2VsZiNqdW1iZj1jMnBhLmFzc2VydGlvbnMvYzJwYS5oYXNoLmRhdGFkaGFzaFggHFmRrGVs1aWZpAKas+7KJRxyY5FYTadXxTCAKOe+jGloZGM6dGl0bGV4GlJlY3JhZnQgQUkgR2VuZXJhdGVkIEltYWdlY2FsZ2ZzaGEyNTYAAAfcanVtYgAAAChqdW1kYzJjcwARABCAAACqADibcQNjMnBhLnNpZ25hdHVyZQAAAAesY2JvctKEWQOwogEmGCGCWQHnMIIB4zCCAYmgAwIBAgIJALfeWmNDUW56MAoGCCqGSM49BAMCMEAxHzAdBgNVBAMMFlJlY3JhZnQgU3RhZ2luZyBEZXYgQ0ExEDAOBgNVBAoMB1JlY3JhZnQxCzAJBgNVBAYTAlVTMB4XDTI2MDYxMjE5NDM1MFoXDTI3MDYxMjE5NDM1MFowNzELMAkGA1UEBhMCVVMxEzARBgNVBAoTClJlY3JhZnQgQUkxEzARBgNVBAMTCnJlY3JhZnQuYWkwWTATBgcqhkjOPQIBBggqhkjOPQMBBwNCAARKaTVbACsg/DeG3LeOxYdID/VA6EFG73E6Oknb+KIiCFJygRUz4ueN2z/t2qYb6CIUvS8RvgOiiClfoqsYtw81o3UwczAMBgNVHRMBAf8EAjAAMA4GA1UdDwEB/wQEAwIGwDATBgNVHSUEDDAKBggrBgEFBQcDBDAdBgNVHQ4EFgQULzHpBen96SL1y4IPHa8MkMshXf0wHwYDVR0jBBgwFoAUAgsqOBrKqpdK//m/kxZo7ZR4ebcwCgYIKoZIzj0EAwIDSAAwRQIgU8hKW0aXvvk8SQgVFNkax69Ym9ae8GsT2RZTQw+B51ACIQC0D4BkEoRD4N0r2ZRkNy0HZaW3WICy/QZGN95ilF4yzFkBvTCCAbkwggFfoAMCAQICCQCc+Wg7T6ATbzAKBggqhkjOPQQDAjBAMR8wHQYDVQQDDBZSZWNyYWZ0IFN0YWdpbmcgRGV2IENBMRAwDgYDVQQKDAdSZWNyYWZ0MQswCQYDVQQGEwJVUzAeFw0yNjA2MTIxOTQwMTZaFw0yODA2MTExOTQwMTZaMEAxHzAdBgNVBAMMFlJlY3JhZnQgU3RhZ2luZyBEZXYgQ0ExEDAOBgNVBAoMB1JlY3JhZnQxCzAJBgNVBAYTAlVTMFkwEwYHKoZIzj0CAQYIKoZIzj0DAQcDQgAEQ9IQBlcVbKaKPYrQSfOhL/00s7xUDC7RinIuLO/I1k99y9yh6oWF9kPxaP+tx1v1PeOL3yrVquJ730H0ZGiDyqNCMEAwDwYDVR0TAQH/BAUwAwEB/zAOBgNVHQ8BAf8EBAMCAYYwHQYDVR0OBBYEFAILKjgayqqXSv/5v5MWaO2UeHm3MAoGCCqGSM49BAMCA0gAMEUCIFQwNImLlYDeQhjgF+ZiqTbgcuzSqmOJw3Q2lQ/hu83FAiEA9O8cLm/xfoVLqB4jtdbuHzi3WL+p2RN+DRGkwpYswVuhY3BhZFkDpAAAAAAAAAAAAAAAAAAAAAAAAAAAAAAAAAAAAAAAAAAAAAAAAAAAAAAAAAAAAAAAAAAAAAAAAAAAAAAAAAAAAAAAAAAAAAAAAAAAAAAAAAAAAAAAAAAAAAAAAAAAAAAAAAAAAAAAAAAAAAAAAAAAAAAAAAAAAAAAAAAAAAAAAAAAAAAAAAAAAAAAAAAAAAAAAAAAAAAAAAAAAAAAAAAAAAAAAAAAAAAAAAAAAAAAAAAAAAAAAAAAAAAAAAAAAAAAAAAAAAAAAAAAAAAAAAAAAAAAAAAAAAAAAAAAAAAAAAAAAAAAAAAAAAAAAAAAAAAAAAAAAAAAAAAAAAAAAAAAAAAAAAAAAAAAAAAAAAAAAAAAAAAAAAAAAAAAAAAAAAAAAAAAAAAAAAAAAAAAAAAAAAAAAAAAAAAAAAAAAAAAAAAAAAAAAAAAAAAAAAAAAAAAAAAAAAAAAAAAAAAAAAAAAAAAAAAAAAAAAAAAAAAAAAAAAAAAAAAAAAAAAAAAAAAAAAAAAAAAAAAAAAAAAAAAAAAAAAAAAAAAAAAAAAAAAAAAAAAAAAAAAAAAAAAAAAAAAAAAAAAAAAAAAAAAAAAAAAAAAAAAAAAAAAAAAAAAAAAAAAAAAAAAAAAAAAAAAAAAAAAAAAAAAAAAAAAAAAAAAAAAAAAAAAAAAAAAAAAAAAAAAAAAAAAAAAAAAAAAAAAAAAAAAAAAAAAAAAAAAAAAAAAAAAAAAAAAAAAAAAAAAAAAAAAAAAAAAAAAAAAAAAAAAAAAAAAAAAAAAAAAAAAAAAAAAAAAAAAAAAAAAAAAAAAAAAAAAAAAAAAAAAAAAAAAAAAAAAAAAAAAAAAAAAAAAAAAAAAAAAAAAAAAAAAAAAAAAAAAAAAAAAAAAAAAAAAAAAAAAAAAAAAAAAAAAAAAAAAAAAAAAAAAAAAAAAAAAAAAAAAAAAAAAAAAAAAAAAAAAAAAAAAAAAAAAAAAAAAAAAAAAAAAAAAAAAAAAAAAAAAAAAAAAAAAAAAAAAAAAAAAAAAAAAAAAAAAAAAAAAAAAAAAAAAAAAAAAAAAAAAAAAAAAAAAAAAAAAAAAAAAAAAAAAAAAAAAAAAAAAAAAAAAAAAAAAAAAAAAAAAAAAAAAAAAAAAAAAAAAAAAAAAAAAAAAAAAAAAAAAAAAAAAAAAAAAAAAAAAAAAAAAAAAAAAAAAAAAAAAAAAAAAAAAAAAAAAAAAAAAAAAAAAAAAAAAAAAAAAAAAA9lhA/A+3tur657RehW8dRu5TqnmjFWsMPnRepwow8gAiaf9W0h12lZ8l5Ut50oiETYpx6z0Ao5NS0ElCOhijcC0XEAAAE95qdW1iAAAAR2p1bWRjMm1hABEAEIAAAKoAOJtxA3VybjpjMnBhOjI5NWJiY2Y1LTY0NmEtNDA0Mi04ZjAwLTc0NjRlNWEwYTNhNQAAAAkdanVtYgAAAClqdW1kYzJhcwARABCAAACqADibcQNjMnBhLmFzc2VydGlvbnMAAAAGOmp1bWIAAABEanVtZGNib3IAEQAQgAAAqgA4m3ETYzJwYS5pbmdyZWRpZW50LnYzAAAAABhjMnNoRI7aa93rxdkXXR/2EeBzrQAABe5jYm9yp2xyZWxhdGlvbnNoaXBocGFyZW50T2ZoZGM6dGl0bGVmc291cmNlaWRjOmZvcm1hdG1pbWFnZS9zdmcreG1scXZhbGlkYXRpb25SZXN1bHRzoW5hY3RpdmVNYW5pZmVzdKNnc3VjY2Vzc4WjZGNvZGV4HWNsYWltU2lnbmF0dXJlLmluc2lkZVZhbGlkaXR5Y3VybHhNc2VsZiNqdW1iZj0vYzJwYS91cm46YzJwYToyMDc1OWEzZS1mNjgzLTRmZWEtYmQzMC0wODdmMjU0ZTJhZjQvYzJwYS5zaWduYXR1cmVrZXhwbGFuYXRpb251Y2xhaW0gc2lnbmF0dXJlIHZhbGlko2Rjb2RleBhjbGFpbVNpZ25hdHVyZS52YWxpZGF0ZWRjdXJseE1zZWxmI2p1bWJmPS9jMnBhL3VybjpjMnBhOjIwNzU5YTNlLWY2ODMtNGZlYS1iZDMwLTA4N2YyNTRlMmFmNC9jMnBhLnNpZ25hdHVyZWtleHBsYW5hdGlvbnVjbGFpbSBzaWduYXR1cmUgdmFsaWSjZGNvZGV4GWFzc2VydGlvbi5oYXNoZWRVUkkubWF0Y2hjdXJseF5zZWxmI2p1bWJmPS9jMnBhL3VybjpjMnBhOjIwNzU5YTNlLWY2ODMtNGZlYS1iZDMwLTA4N2YyNTRlMmFmNC9jMnBhLmFzc2VydGlvbnMvYzJwYS5hY3Rpb25zLnYya2V4cGxhbmF0aW9ueD5oYXNoZWQgdXJpIG1hdGNoZWQ6IHNlbGYjanVtYmY9YzJwYS5hc3NlcnRpb25zL2MycGEuYWN0aW9ucy52MqNkY29kZXgZYXNzZXJ0aW9uLmhhc2hlZFVSSS5tYXRjaGN1cmx4XXNlbGYjanVtYmY9L2MycGEvdXJuOmMycGE6MjA3NTlhM2UtZjY4My00ZmVhLWJkMzAtMDg3ZjI1NGUyYWY0L2MycGEuYXNzZXJ0aW9ucy9jMnBhLmhhc2guZGF0YWtleHBsYW5hdGlvbng9aGFzaGVkIHVyaSBtYXRjaGVkOiBzZWxmI2p1bWJmPWMycGEuYXNzZXJ0aW9ucy9jMnBhLmhhc2guZGF0YaNkY29kZXgYYXNzZXJ0aW9uLmRhdGFIYXNoLm1hdGNoY3VybHhdc2VsZiNqdW1iZj0vYzJwYS91cm46YzJwYToyMDc1OWEzZS1mNjgzLTRmZWEtYmQzMC0wODdmMjU0ZTJhZjQvYzJwYS5hc3NlcnRpb25zL2MycGEuaGFzaC5kYXRha2V4cGxhbmF0aW9ub2RhdGEgaGFzaCB2YWxpZG1pbmZvcm1hdGlvbmFsgGdmYWlsdXJlgaNkY29kZXgbc2lnbmluZ0NyZWRlbnRpYWwudW50cnVzdGVkY3VybHhNc2VsZiNqdW1iZj0vYzJwYS91cm46YzJwYToyMDc1OWEzZS1mNjgzLTRmZWEtYmQzMC0wODdmMjU0ZTJhZjQvYzJwYS5zaWduYXR1cmVrZXhwbGFuYXRpb254HXNpZ25pbmcgY2VydGlmaWNhdGUgdW50cnVzdGVkamluc3RhbmNlSUR4LHhtcDppaWQ6MDcxNWY1YjgtNTU0Ny00OTBkLWExMzAtYmQ0YTU1MWQwNzI1bmFjdGl2ZU1hbmlmZXN0o2N1cmx4PnNlbGYjanVtYmY9L2MycGEvdXJuOmMycGE6MjA3NTlhM2UtZjY4My00ZmVhLWJkMzAtMDg3ZjI1NGUyYWY0Y2FsZ2ZzaGEyNTZkaGFzaFggSEsD9d0GruS+jzTaQqZvg5dUCuegaSn3WAPwvPZ30RJuY2xhaW1TaWduYXR1cmWjY3VybHhNc2VsZiNqdW1iZj0vYzJwYS91cm46YzJwYToyMDc1OWEzZS1mNjgzLTRmZWEtYmQzMC0wODdmMjU0ZTJhZjQvYzJwYS5zaWduYXR1cmVjYWxnZnNoYTI1NmRoYXNoWCDpmYBh/8JVCDro0j/rW8u5tvyJr807aGmsG+3NdlLJxwAAAe5qdW1iAAAAQWp1bWRjYm9yABEAEIAAAKoAOJtxE2MycGEuYWN0aW9ucy52MgAAAAAYYzJzaBhMVNwrfgyndKog4QSl02AAAAGlY2JvcqFnYWN0aW9uc4KiZmFjdGlvbmtjMnBhLm9wZW5lZGpwYXJhbWV0ZXJzoWtpbmdyZWRpZW50c4GiY3VybHgtc2VsZiNqdW1iZj1jMnBhLmFzc2VydGlvbnMvYzJwYS5pbmdyZWRpZW50LnYzZGhhc2hYINs7XkzuiFjxyqHpFrBWa15vM/FDx69Jk8SxiDwSY2efpGZhY3Rpb25sYzJwYS5jcmVhdGVkanBhcmFtZXRlcnOha2luZ3JlZGllbnRzgaJjdXJseC1zZWxmI2p1bWJmPWMycGEuYXNzZXJ0aW9ucy9jMnBhLmluZ3JlZGllbnQudjNkaGFzaFgg2zteTO6IWPHKoekWsFZrXm8z8UPHr0mTxLGIPBJjZ59xZGlnaXRhbFNvdXJjZVR5cGV4QWh0dHA6Ly9jdi5pcHRjLm9yZy9uZXdzY29kZXMvZGlnaXRhbHNvdXJjZXR5cGUvY29tcG9zaXRlU3ludGhldGlja2Rlc2NyaXB0aW9ueB9Db21wb3NlZCBpbiB0aGUgUmVjcmFmdCBlZGl0b3IuAAAAxGp1bWIAAABAanVtZGNib3IAEQAQgAAAqgA4m3ETYzJwYS5oYXNoLmRhdGEAAAAAGGMyc2hUVCqORjJuqbY90XW0MNakAAAAfGNib3KlamV4Y2x1c2lvbnOBomVzdGFydBjsZmxlbmd0aBkrCGRuYW1lbmp1bWJmIG1hbmlmZXN0Y2FsZ2ZzaGEyNTZkaGFzaFgg33OrpOZfRVgViFd7n09eDvZ4WIIJ9c3F4BzgXXCgrjZjcGFkSQAAAAAAAAAAAAAAApZqdW1iAAAAJ2p1bWRjMmNsABEAEIAAAKoAOJtxA2MycGEuY2xhaW0udjIAAAACZ2Nib3Knamluc3RhbmNlSUR4LHhtcDppaWQ6ZWFiZjU1NmQtNjZmZS00MTlmLWI1NTgtMmJhNTU4MTBlZmI4dGNsYWltX2dlbmVyYXRvcl9pbmZvo2RuYW1lanJlY3JhZnQuYWlndmVyc2lvbngoODFjZTgyZTJjNWMzY2JmYmU4YzZmYmUxNzlkNWY4ZDkxYzQwOWNlMXdvcmcuY29udGVudGF1dGguYzJwYV9yc2YwLjkwLjdpc2lnbmF0dXJleE1zZWxmI2p1bWJmPS9jMnBhL3VybjpjMnBhOjI5NWJiY2Y1LTY0NmEtNDA0Mi04ZjAwLTc0NjRlNWEwYTNhNS9jMnBhLnNpZ25hdHVyZXJjcmVhdGVkX2Fzc2VydGlvbnOComN1cmx4KnNlbGYjanVtYmY9YzJwYS5hc3NlcnRpb25zL2MycGEuYWN0aW9ucy52MmRoYXNoWCCfyxpnYhyDSWlq+27vh+gwANYikXZBzsPg0y2n3VGCg6JjdXJseClzZWxmI2p1bWJmPWMycGEuYXNzZXJ0aW9ucy9jMnBhLmhhc2guZGF0YWRoYXNoWCC/6fBQYCCkcuRWPc+DawO5rFmPpHCDJ1tP/qSq7vdnX3NnYXRoZXJlZF9hc3NlcnRpb25zgaJjdXJseC1zZWxmI2p1bWJmPWMycGEuYXNzZXJ0aW9ucy9jMnBhLmluZ3JlZGllbnQudjNkaGFzaFgg2zteTO6IWPHKoekWsFZrXm8z8UPHr0mTxLGIPBJjZ59oZGM6dGl0bGVtUmVjcmFmdCBJbWFnZWNhbGdmc2hhMjU2AAAH3Gp1bWIAAAAoanVtZGMyY3MAEQAQgAAAqgA4m3EDYzJwYS5zaWduYXR1cmUAAAAHrGNib3LShFkDsKIBJhghglkB5zCCAeMwggGJoAMCAQICCQC33lpjQ1FuejAKBggqhkjOPQQDAjBAMR8wHQYDVQQDDBZSZWNyYWZ0IFN0YWdpbmcgRGV2IENBMRAwDgYDVQQKDAdSZWNyYWZ0MQswCQYDVQQGEwJVUzAeFw0yNjA2MTIxOTQzNTBaFw0yNzA2MTIxOTQzNTBaMDcxCzAJBgNVBAYTAlVTMRMwEQYDVQQKEwpSZWNyYWZ0IEFJMRMwEQYDVQQDEwpyZWNyYWZ0LmFpMFkwEwYHKoZIzj0CAQYIKoZIzj0DAQcDQgAESmk1WwArIPw3hty3jsWHSA/1QOhBRu9xOjpJ2/iiIghScoEVM+Lnjds/7dqmG+giFL0vEb4DoogpX6KrGLcPNaN1MHMwDAYDVR0TAQH/BAIwADAOBgNVHQ8BAf8EBAMCBsAwEwYDVR0lBAwwCgYIKwYBBQUHAwQwHQYDVR0OBBYEFC8x6QXp/eki9cuCDx2vDJDLIV39MB8GA1UdIwQYMBaAFAILKjgayqqXSv/5v5MWaO2UeHm3MAoGCCqGSM49BAMCA0gAMEUCIFPISltGl775PEkIFRTZGsevWJvWnvBrE9kWU0MPgedQAiEAtA+AZBKEQ+DdK9mUZDctB2Wlt1iAsv0GRjfeYpReMsxZAb0wggG5MIIBX6ADAgECAgkAnPloO0+gE28wCgYIKoZIzj0EAwIwQDEfMB0GA1UEAwwWUmVjcmFmdCBTdGFnaW5nIERldiBDQTEQMA4GA1UECgwHUmVjcmFmdDELMAkGA1UEBhMCVVMwHhcNMjYwNjEyMTk0MDE2WhcNMjgwNjExMTk0MDE2WjBAMR8wHQYDVQQDDBZSZWNyYWZ0IFN0YWdpbmcgRGV2IENBMRAwDgYDVQQKDAdSZWNyYWZ0MQswCQYDVQQGEwJVUzBZMBMGByqGSM49AgEGCCqGSM49AwEHA0IABEPSEAZXFWymij2K0EnzoS/9NLO8VAwu0YpyLizvyNZPfcvcoeqFhfZD8Wj/rcdb9T3ji98q1arie99B9GRog8qjQjBAMA8GA1UdEwEB/wQFMAMBAf8wDgYDVR0PAQH/BAQDAgGGMB0GA1UdDgQWBBQCCyo4Gsqql0r/+b+TFmjtlHh5tzAKBggqhkjOPQQDAgNIADBFAiBUMDSJi5WA3kIY4BfmYqk24HLs0qpjicN0NpUP4bvNxQIhAPTvHC5v8X6FS6geI7XW7h84t1i/qdkTfg0RpMKWLMFboWNwYWRZA6QAAAAAAAAAAAAAAAAAAAAAAAAAAAAAAAAAAAAAAAAAAAAAAAAAAAAAAAAAAAAAAAAAAAAAAAAAAAAAAAAAAAAAAAAAAAAAAAAAAAAAAAAAAAAAAAAAAAAAAAAAAAAAAAAAAAAAAAAAAAAAAAAAAAAAAAAAAAAAAAAAAAAAAAAAAAAAAAAAAAAAAAAAAAAAAAAAAAAAAAAAAAAAAAAAAAAAAAAAAAAAAAAAAAAAAAAAAAAAAAAAAAAAAAAAAAAAAAAAAAAAAAAAAAAAAAAAAAAAAAAAAAAAAAAAAAAAAAAAAAAAAAAAAAAAAAAAAAAAAAAAAAAAAAAAAAAAAAAAAAAAAAAAAAAAAAAAAAAAAAAAAAAAAAAAAAAAAAAAAAAAAAAAAAAAAAAAAAAAAAAAAAAAAAAAAAAAAAAAAAAAAAAAAAAAAAAAAAAAAAAAAAAAAAAAAAAAAAAAAAAAAAAAAAAAAAAAAAAAAAAAAAAAAAAAAAAAAAAAAAAAAAAAAAAAAAAAAAAAAAAAAAAAAAAAAAAAAAAAAAAAAAAAAAAAAAAAAAAAAAAAAAAAAAAAAAAAAAAAAAAAAAAAAAAAAAAAAAAAAAAAAAAAAAAAAAAAAAAAAAAAAAAAAAAAAAAAAAAAAAAAAAAAAAAAAAAAAAAAAAAAAAAAAAAAAAAAAAAAAAAAAAAAAAAAAAAAAAAAAAAAAAAAAAAAAAAAAAAAAAAAAAAAAAAAAAAAAAAAAAAAAAAAAAAAAAAAAAAAAAAAAAAAAAAAAAAAAAAAAAAAAAAAAAAAAAAAAAAAAAAAAAAAAAAAAAAAAAAAAAAAAAAAAAAAAAAAAAAAAAAAAAAAAAAAAAAAAAAAAAAAAAAAAAAAAAAAAAAAAAAAAAAAAAAAAAAAAAAAAAAAAAAAAAAAAAAAAAAAAAAAAAAAAAAAAAAAAAAAAAAAAAAAAAAAAAAAAAAAAAAAAAAAAAAAAAAAAAAAAAAAAAAAAAAAAAAAAAAAAAAAAAAAAAAAAAAAAAAAAAAAAAAAAAAAAAAAAAAAAAAAAAAAAAAAAAAAAAAAAAAAAAAAAAAAAAAAAAAAAAAAAAAAAAAAAAAAAAAAAAAAAAAAAAAAAAAAAAAAAAAAAAAAAAAAAAAAAAAAAAAAAAAAAAAAAAAAAAAAAAAAAAAAAAAAAAAAAAAAAAAAAAAAAAAAAAAAAAAAAAAAAAAAAAAAAAAAAAAAAAAAAAAAAAAAAAAAAAAAAAAAAPZYQMhX35uXU3WkFRkNgiXs0aL9ISKysgvZiZC0ouDwYFAOX8ujYNHxVGB5B+FKBw5TQL6+8HYEOY2WU5LD7+Q9uu8=</c2pa:manifest></metadata><path fill="#2A2D31" d="M0 0L1024 0L1024 1024L0 1024L0 0Z"/><path fill="#E2E1E1" d="M392.409 479.038C398.723 466.121 409.459 448.758 410.254 434.528C411.666 409.23 415.183 387.293 439.939 373.429C445.824 370.197 452.21 367.975 458.83 366.855C471.669 364.609 510.3 364.787 522.523 368.23C543.645 374.024 559.424 391.638 562.869 413.268C564.459 423.188 563.289 431.908 566.004 442.708C569.682 457.337 574.339 466.205 581.589 479.011L603.608 478.97C604.836 473.601 608.46 467.56 612.459 463.799C622.452 454.403 631.21 454.578 643.775 454.857C648.785 454.926 662.096 455.398 666.419 454.929C675.472 456.813 682.466 461.361 687.598 469.127C689.609 472.167 691.139 475.499 692.135 479.005L715.856 478.934C720.655 478.923 725.317 478.758 730.041 479.271C736.712 479.994 739.799 488.519 734.549 492.916C730.839 496.023 724.74 495.41 720.248 495.395C720.218 503.394 720.236 511.394 720.302 519.394C720.438 540.061 722.26 542.264 701.534 541.969L701.556 642.579L701.552 670.919C701.604 677.698 704.101 692.608 696.642 695.241C691.311 697.122 685.145 693.974 685.212 688.019C685.05 682.3 685.087 676.733 685.09 671.045L685.108 639.225L685.062 541.998L583.017 542.011C585.696 550.234 585.908 558.517 581.822 566.374C578.398 572.996 572.405 577.923 565.245 580.002C557.821 582.162 542.614 581.513 534.388 581.506L498.294 581.449C493.011 581.28 486.906 581.424 481.562 581.428C471.435 581.592 460.478 581.561 450.326 581.496C440.772 580.702 427.898 583.092 418.754 580.09C401.012 574.267 394.6 559.104 400.18 542.057L326.528 542.07L326.513 645.515C326.445 653.872 326.426 662.23 326.455 670.588C326.49 674.826 327.576 690.652 324.238 693.558C318.617 698.452 310.36 696.498 309.983 687.595C309.709 681.104 309.662 674.429 309.674 667.738L309.736 636.586L309.706 541.66C305.758 541.742 296.119 542.748 292.735 540.094C291.711 539.29 290.551 535.844 290.496 534.514C289.96 521.457 290.568 508.39 290.126 495.297C285.46 495.335 279.619 496.031 276.027 492.479C271.181 487.686 274.665 479.483 281.594 479.288C292.897 478.968 304.17 479.103 315.461 479.076L392.409 479.038Z"/><path fill="#2A2D31" d="M655.511 495.251L703.035 495.435L703.066 525.975L354.25 525.99C338.798 525.985 321.807 525.705 306.479 526.289L306.575 495.449L655.511 495.251Z"/><path fill="#2A2D31" d="M469.609 381.723C481.558 381.684 508.669 380.516 518.891 383.787C534.117 388.755 545.133 402.03 547.206 417.911C548.176 425.421 547.167 431.783 548.918 440.33C552.107 455.896 555.8 465.116 562.963 478.871C544.083 479.343 523.743 478.982 504.75 478.998L410.877 478.937C417.132 467.237 421.997 457.315 425.219 444.306C429.692 426.24 423.797 411.243 437.424 396.12C446.704 385.822 456.25 382.58 469.609 381.723Z"/><path fill="#2A2D31" d="M424.683 541.714C470.186 542.695 516.835 540.889 561.978 542.037C565.054 543.718 566.926 545.202 568.153 548.594C569.282 551.697 569.058 555.131 567.537 558.062C565.508 561.997 562.618 563.52 558.617 564.761C553.7 565.198 544.224 564.924 538.931 564.925L501.632 564.922L452.604 564.988C446.431 564.998 424.836 565.98 420.19 563.287C417.236 561.562 415.144 558.673 414.428 555.328C413.801 552.277 414.451 549.102 416.227 546.543C418.399 543.434 421.119 542.329 424.683 541.714Z"/><path fill="#A2A263" d="M593.615 338.003C596.949 332.48 601.649 328.998 607.961 327.468C615.179 325.78 622.773 327.075 629.024 331.061C635.438 335.183 639.885 341.751 641.331 349.237C642.28 354.113 641.702 358.962 640.871 363.811L672.757 394.93C677.07 399.128 682.831 404.29 686.864 408.54C681.985 411.865 677.637 418.27 675.398 419.777C660.956 406.197 647.109 391.853 632.401 378.193C630.72 380.368 628.969 382.434 627.208 384.542C625.484 387.044 627.872 396.312 625.038 399.929C622.375 403.327 616.925 404.596 613.6 401.669C606.799 395.681 600.428 389.094 593.939 382.782C586.448 375.529 578.999 368.234 571.591 360.897C566.263 355.626 552.237 345.134 558.867 337.086C565.649 328.853 585.632 340.142 593.615 338.003Z"/><path fill="#E2E1E1" d="M593.615 338.003C596.949 332.48 601.649 328.998 607.961 327.468C615.179 325.78 622.773 327.075 629.024 331.061C635.438 335.183 639.885 341.751 641.331 349.237C642.28 354.113 641.702 358.962 640.871 363.811L672.757 394.93C677.07 399.128 682.831 404.29 686.864 408.54C681.985 411.865 677.637 418.27 675.398 419.777C660.956 406.197 647.109 391.853 632.401 378.193C630.72 380.368 628.969 382.434 627.208 384.542C625.3 376.805 630.09 354.455 624.618 346.404C619.824 339.351 603.497 340.091 594.504 338.196L593.615 338.003Z"/><path fill="#BAB9BB" d="M481.562 581.428C486.906 581.424 493.011 581.28 498.294 581.449L498.216 626.553C506.978 626.534 536.129 625.88 542.703 627.655C546.274 628.636 549.535 630.514 552.176 633.11C555.355 636.268 556.243 638.459 557.189 642.585C551.94 643.463 549.563 642.955 544.703 646.944C544.473 647.133 543.984 647.369 543.724 647.5C542.585 645.261 540.902 644.224 538.859 642.872C530.847 643.297 501.109 642.501 495.899 643.866C492.272 642.397 488.219 642.384 484.582 643.828C479.855 642.706 447.874 642.975 440.626 642.952C437.976 644.815 437.678 645.251 435.602 647.73L435.166 648.246C431.987 644.263 427.038 642.118 421.958 642.524C422.95 638.771 424.349 635.964 427.106 633.136C429.886 630.301 433.416 628.318 437.284 627.419C443.51 625.911 473.017 626.513 481.594 626.54L481.562 581.428Z"/><path fill="#BAB9BB" d="M686.864 408.54C689.09 410.939 691.397 410.32 693.668 412.309C699.621 417.52 695.743 421.935 692.232 426.468C688.171 431.712 668.114 450.11 666.419 454.929C662.096 455.398 648.785 454.926 643.775 454.857C646.228 452.538 674.93 420.917 675.398 419.777C677.637 418.27 681.985 411.865 686.864 408.54Z"/><path fill="#E2E1E1" d="M435.166 648.246C439.557 653.749 439.637 661.536 435.359 667.128C431.081 672.721 423.544 674.681 417.084 671.882C410.623 669.084 406.898 662.245 408.051 655.299C409.204 648.353 414.939 643.085 421.958 642.524C427.038 642.118 431.987 644.263 435.166 648.246Z"/><path fill="#E2E1E1" d="M557.189 642.585C582.74 648.797 569.33 678.791 551.49 672.667C547.416 671.246 544.066 668.278 542.164 664.406C539.397 658.679 541.236 652.908 543.724 647.5C543.984 647.369 544.473 647.133 544.703 646.944C549.563 642.955 551.94 643.463 557.189 642.585Z"/><path fill="#E2E1E1" d="M484.582 643.828C488.219 642.384 492.272 642.397 495.899 643.866C502.651 646.601 506.514 653.741 505.109 660.889C503.704 668.037 497.425 673.183 490.141 673.158C482.856 673.134 476.613 667.945 475.256 660.787C473.9 653.63 477.811 646.516 484.582 643.828Z"/></svg>