<?xml version="1.0" encoding="utf-8" ?><svg xmlns="http://www.w3.org/2000/svg" xmlns:xlink="http://www.w3.org/1999/xlink" width="1024" height="1024" viewBox="0 0 1024 1024" xmlns:c2pa="http://c2pa.org/manifest"><metadata><c2pa:manifest>AAAgRWp1bWIAAAAeanVtZGMycGEAEQAQgAAAqgA4m3EDYzJwYQAAAAxBanVtYgAAAEdqdW1kYzJtYQARABCAAACqADibcQN1cm46YzJwYTpiNDM1NjlkNy05OTI3LTRmYzAtYjc2OC1iZDVjMmE1NWQ1MWUAAAAB4mp1bWIAAAApanVtZGMyYXMAEQAQgAAAqgA4m3EDYzJwYS5hc3NlcnRpb25zAAAAAO1qdW1iAAAAQWp1bWRjYm9yABEAEIAAAKoAOJtxE2MycGEuYWN0aW9ucy52MgAAAAAYYzJzaBbhyjdlM3E4FRYRvAFvRK4AAACkY2JvcqFnYWN0aW9uc4GjZmFjdGlvbmxjMnBhLmNyZWF0ZWRxZGlnaXRhbFNvdXJjZVR5cGV4Rmh0dHA6Ly9jdi5pcHRjLm9yZy9uZXdzY29kZXMvZGlnaXRhbHNvdXJjZXR5cGUvdHJhaW5lZEFsZ29yaXRobWljTWVkaWFrZGVzY3JpcHRpb252Q3JlYXRlZCBieSBSZWNyYWZ0IEFJLgAAAMRqdW1iAAAAQGp1bWRjYm9yABEAEIAAAKoAOJtxE2MycGEuaGFzaC5kYXRhAAAAABhjMnNo5uteVzz3PKZqcTt2CF1KeAAAAHxjYm9ypWpleGNsdXNpb25zgaJlc3RhcnQY22ZsZW5ndGgZEIxkbmFtZW5qdW1iZiBtYW5pZmVzdGNhbGdmc2hhMjU2ZGhhc2hYIPWf7z7c6lbwCNUcVNBRdcarHakr74JNFxZQnOSlbMG6Y3BhZEkAAAAAAAAAAAAAAAI0anVtYgAAACdqdW1kYzJjbAARABCAAACqADibcQNjMnBhLmNsYWltLnYyAAAAAgVjYm9ypmppbnN0YW5jZUlEeCx4bXA6aWlkOmNlNjBkNzNkLTMyYzMtNDkwNy1hMzJjLWNjN2MyMjc0N2Y2ZXRjbGFpbV9nZW5lcmF0b3JfaW5mb6NkbmFtZWpyZWNyYWZ0LmFpZ3ZlcnNpb254KDgxY2U4MmUyYzVjM2NiZmJlOGM2ZmJlMTc5ZDVmOGQ5MWM0MDljZTF3b3JnLmNvbnRlbnRhdXRoLmMycGFfcnNmMC45MC43aXNpZ25hdHVyZXhNc2VsZiNqdW1iZj0vYzJwYS91cm46YzJwYTpiNDM1NjlkNy05OTI3LTRmYzAtYjc2OC1iZDVjMmE1NWQ1MWUvYzJwYS5zaWduYXR1cmVyY3JlYXRlZF9hc3NlcnRpb25zgqJjdXJseCpzZWxmI2p1bWJmPWMycGEuYXNzZXJ0aW9ucy9jMnBhLmFjdGlvbnMudjJkaGFzaFggO0MogQnrsQB8OVPU+aouZ/3zpK9+4PRdHmPUo05oG6WiY3VybHgpc2VsZiNqdW1iZj1jMnBhLmFzc2VydGlvbnMvYzJwYS5oYXNoLmRhdGFkaGFzaFgg28wQfcxUIlUARJeAXX6PLbq0fefvNQ7tewS+4SL6CaJoZGM6dGl0bGV4GlJlY3JhZnQgQUkgR2VuZXJhdGVkIEltYWdlY2FsZ2ZzaGEyNTYAAAfcanVtYgAAAChqdW1kYzJjcwARABCAAACqADibcQNjMnBhLnNpZ25hdHVyZQAAAAesY2JvctKEWQOwogEmGCGCWQHnMIIB4zCCAYmgAwIBAgIJALfeWmNDUW56MAoGCCqGSM49BAMCMEAxHzAdBgNVBAMMFlJlY3JhZnQgU3RhZ2luZyBEZXYgQ0ExEDAOBgNVBAoMB1JlY3JhZnQxCzAJBgNVBAYTAlVTMB4XDTI2MDYxMjE5NDM1MFoXDTI3MDYxMjE5NDM1MFowNzELMAkGA1UEBhMCVVMxEzARBgNVBAoTClJlY3JhZnQgQUkxEzARBgNVBAMTCnJlY3JhZnQuYWkwWTATBgcqhkjOPQIBBggqhkjOPQMBBwNCAARKaTVbACsg/DeG3LeOxYdID/VA6EFG73E6Oknb+KIiCFJygRUz4ueN2z/t2qYb6CIUvS8RvgOiiClfoqsYtw81o3UwczAMBgNVHRMBAf8EAjAAMA4GA1UdDwEB/wQEAwIGwDATBgNVHSUEDDAKBggrBgEFBQcDBDAdBgNVHQ4EFgQULzHpBen96SL1y4IPHa8MkMshXf0wHwYDVR0jBBgwFoAUAgsqOBrKqpdK//m/kxZo7ZR4ebcwCgYIKoZIzj0EAwIDSAAwRQIgU8hKW0aXvvk8SQgVFNkax69Ym9ae8GsT2RZTQw+B51ACIQC0D4BkEoRD4N0r2ZRkNy0HZaW3WICy/QZGN95ilF4yzFkBvTCCAbkwggFfoAMCAQICCQCc+Wg7T6ATbzAKBggqhkjOPQQDAjBAMR8wHQYDVQQDDBZSZWNyYWZ0IFN0YWdpbmcgRGV2IENBMRAwDgYDVQQKDAdSZWNyYWZ0MQswCQYDVQQGEwJVUzAeFw0yNjA2MTIxOTQwMTZaFw0yODA2MTExOTQwMTZaMEAxHzAdBgNVBAMMFlJlY3JhZnQgU3RhZ2luZyBEZXYgQ0ExEDAOBgNVBAoMB1JlY3JhZnQxCzAJBgNVBAYTAlVTMFkwEwYHKoZIzj0CAQYIKoZIzj0DAQcDQgAEQ9IQBlcVbKaKPYrQSfOhL/00s7xUDC7RinIuLO/I1k99y9yh6oWF9kPxaP+tx1v1PeOL3yrVquJ730H0ZGiDyqNCMEAwDwYDVR0TAQH/BAUwAwEB/zAOBgNVHQ8BAf8EBAMCAYYwHQYDVR0OBBYEFAILKjgayqqXSv/5v5MWaO2UeHm3MAoGCCqGSM49BAMCA0gAMEUCIFQwNImLlYDeQhjgF+ZiqTbgcuzSqmOJw3Q2lQ/hu83FAiEA9O8cLm/xfoVLqB4jtdbuHzi3WL+p2RN+DRGkwpYswVuhY3BhZFkDpAAAAAAAAAAAAAAAAAAAAAAAAAAAAAAAAAAAAAAAAAAAAAAAAAAAAAAAAAAAAAAAAAAAAAAAAAAAAAAAAAAAAAAAAAAAAAAAAAAAAAAAAAAAAAAAAAAAAAAAAAAAAAAAAAAAAAAAAAAAAAAAAAAAAAAAAAAAAAAAAAAAAAAAAAAAAAAAAAAAAAAAAAAAAAAAAAAAAAAAAAAAAAAAAAAAAAAAAAAAAAAAAAAAAAAAAAAAAAAAAAAAAAAAAAAAAAAAAAAAAAAAAAAAAAAAAAAAAAAAAAAAAAAAAAAAAAAAAAAAAAAAAAAAAAAAAAAAAAAAAAAAAAAAAAAAAAAAAAAAAAAAAAAAAAAAAAAAAAAAAAAAAAAAAAAAAAAAAAAAAAAAAAAAAAAAAAAAAAAAAAAAAAAAAAAAAAAAAAAAAAAAAAAAAAAAAAAAAAAAAAAAAAAAAAAAAAAAAAAAAAAAAAAAAAAAAAAAAAAAAAAAAAAAAAAAAAAAAAAAAAAAAAAAAAAAAAAAAAAAAAAAAAAAAAAAAAAAAAAAAAAAAAAAAAAAAAAAAAAAAAAAAAAAAAAAAAAAAAAAAAAAAAAAAAAAAAAAAAAAAAAAAAAAAAAAAAAAAAAAAAAAAAAAAAAAAAAAAAAAAAAAAAAAAAAAAAAAAAAAAAAAAAAAAAAAAAAAAAAAAAAAAAAAAAAAAAAAAAAAAAAAAAAAAAAAAAAAAAAAAAAAAAAAAAAAAAAAAAAAAAAAAAAAAAAAAAAAAAAAAAAAAAAAAAAAAAAAAAAAAAAAAAAAAAAAAAAAAAAAAAAAAAAAAAAAAAAAAAAAAAAAAAAAAAAAAAAAAAAAAAAAAAAAAAAAAAAAAAAAAAAAAAAAAAAAAAAAAAAAAAAAAAAAAAAAAAAAAAAAAAAAAAAAAAAAAAAAAAAAAAAAAAAAAAAAAAAAAAAAAAAAAAAAAAAAAAAAAAAAAAAAAAAAAAAAAAAAAAAAAAAAAAAAAAAAAAAAAAAAAAAAAAAAAAAAAAAAAAAAAAAAAAAAAAAAAAAAAAAAAAAAAAAAAAAAAAAAAAAAAAAAAAAAAAAAAAAAAAAAAAAAAAAAAAAAAAAAAAAAAAAAAAAAAAAAAAAAAAAAAAAAAAAAAAAAAAAAAAAAAAAAAAAAAAAAAAAAAAAAAAAAAAAAAAAAAAAAAAAAAAAAAAAAAAAAAAAAAAAAAAAAAAAAAAAAAAAAAAAAAAAAAAAAAAAAAAAAAAAAAAAA9lhAhq2R0aQ8m/wRNFNUCjegRW7XVAOHmJn8jQmHN+qJKktOwnmenW/k+FY7JYyz+AbpNEveDDrd1JF1OMT4OZkM2wAAE95qdW1iAAAAR2p1bWRjMm1hABEAEIAAAKoAOJtxA3VybjpjMnBhOjA0NjhkNzNmLTRhNmQtNGMwOS05NzUxLTY5YjM4OWViOTcwMQAAAAkdanVtYgAAAClqdW1kYzJhcwARABCAAACqADibcQNjMnBhLmFzc2VydGlvbnMAAAAGOmp1bWIAAABEanVtZGNib3IAEQAQgAAAqgA4m3ETYzJwYS5pbmdyZWRpZW50LnYzAAAAABhjMnNolCi8X8h4FvPOwUZn8y3j5gAABe5jYm9yp2xyZWxhdGlvbnNoaXBocGFyZW50T2ZoZGM6dGl0bGVmc291cmNlaWRjOmZvcm1hdG1pbWFnZS9zdmcreG1scXZhbGlkYXRpb25SZXN1bHRzoW5hY3RpdmVNYW5pZmVzdKNnc3VjY2Vzc4WjZGNvZGV4HWNsYWltU2lnbmF0dXJlLmluc2lkZVZhbGlkaXR5Y3VybHhNc2VsZiNqdW1iZj0vYzJwYS91cm46YzJwYTpiNDM1NjlkNy05OTI3LTRmYzAtYjc2OC1iZDVjMmE1NWQ1MWUvYzJwYS5zaWduYXR1cmVrZXhwbGFuYXRpb251Y2xhaW0gc2lnbmF0dXJlIHZhbGlko2Rjb2RleBhjbGFpbVNpZ25hdHVyZS52YWxpZGF0ZWRjdXJseE1zZWxmI2p1bWJmPS9jMnBhL3VybjpjMnBhOmI0MzU2OWQ3LTk5MjctNGZjMC1iNzY4LWJkNWMyYTU1ZDUxZS9jMnBhLnNpZ25hdHVyZWtleHBsYW5hdGlvbnVjbGFpbSBzaWduYXR1cmUgdmFsaWSjZGNvZGV4GWFzc2VydGlvbi5oYXNoZWRVUkkubWF0Y2hjdXJseF5zZWxmI2p1bWJmPS9jMnBhL3VybjpjMnBhOmI0MzU2OWQ3LTk5MjctNGZjMC1iNzY4LWJkNWMyYTU1ZDUxZS9jMnBhLmFzc2VydGlvbnMvYzJwYS5hY3Rpb25zLnYya2V4cGxhbmF0aW9ueD5oYXNoZWQgdXJpIG1hdGNoZWQ6IHNlbGYjanVtYmY9YzJwYS5hc3NlcnRpb25zL2MycGEuYWN0aW9ucy52MqNkY29kZXgZYXNzZXJ0aW9uLmhhc2hlZFVSSS5tYXRjaGN1cmx4XXNlbGYjanVtYmY9L2MycGEvdXJuOmMycGE6YjQzNTY5ZDctOTkyNy00ZmMwLWI3NjgtYmQ1YzJhNTVkNTFlL2MycGEuYXNzZXJ0aW9ucy9jMnBhLmhhc2guZGF0YWtleHBsYW5hdGlvbng9aGFzaGVkIHVyaSBtYXRjaGVkOiBzZWxmI2p1bWJmPWMycGEuYXNzZXJ0aW9ucy9jMnBhLmhhc2guZGF0YaNkY29kZXgYYXNzZXJ0aW9uLmRhdGFIYXNoLm1hdGNoY3VybHhdc2VsZiNqdW1iZj0vYzJwYS91cm46YzJwYTpiNDM1NjlkNy05OTI3LTRmYzAtYjc2OC1iZDVjMmE1NWQ1MWUvYzJwYS5hc3NlcnRpb25zL2MycGEuaGFzaC5kYXRha2V4cGxhbmF0aW9ub2RhdGEgaGFzaCB2YWxpZG1pbmZvcm1hdGlvbmFsgGdmYWlsdXJlgaNkY29kZXgbc2lnbmluZ0NyZWRlbnRpYWwudW50cnVzdGVkY3VybHhNc2VsZiNqdW1iZj0vYzJwYS91cm46YzJwYTpiNDM1NjlkNy05OTI3LTRmYzAtYjc2OC1iZDVjMmE1NWQ1MWUvYzJwYS5zaWduYXR1cmVrZXhwbGFuYXRpb254HXNpZ25pbmcgY2VydGlmaWNhdGUgdW50cnVzdGVkamluc3RhbmNlSUR4LHhtcDppaWQ6M2E1NTM4YWUtYTM2ZS00OTc2LWE5NDEtMzNmZmJkNGFiMDYxbmFjdGl2ZU1hbmlmZXN0o2N1cmx4PnNlbGYjanVtYmY9L2MycGEvdXJuOmMycGE6YjQzNTY5ZDctOTkyNy00ZmMwLWI3NjgtYmQ1YzJhNTVkNTFlY2FsZ2ZzaGEyNTZkaGFzaFggu/kwpX8yZzj8yOI9cqixXc0MDbXm2Rer4hGYXsoLlQduY2xhaW1TaWduYXR1cmWjY3VybHhNc2VsZiNqdW1iZj0vYzJwYS91cm46YzJwYTpiNDM1NjlkNy05OTI3LTRmYzAtYjc2OC1iZDVjMmE1NWQ1MWUvYzJwYS5zaWduYXR1cmVjYWxnZnNoYTI1NmRoYXNoWCCPBO0Urgm86kHFWVHvnP7iuNsSPz51P1WdR4cJVXLx1wAAAe5qdW1iAAAAQWp1bWRjYm9yABEAEIAAAKoAOJtxE2MycGEuYWN0aW9ucy52MgAAAAAYYzJzaK+OpGXIyQ64eqvBP0u/s48AAAGlY2JvcqFnYWN0aW9uc4KiZmFjdGlvbmtjMnBhLm9wZW5lZGpwYXJhbWV0ZXJzoWtpbmdyZWRpZW50c4GiY3VybHgtc2VsZiNqdW1iZj1jMnBhLmFzc2VydGlvbnMvYzJwYS5pbmdyZWRpZW50LnYzZGhhc2hYIBgauBTXjIB+OoD8Hocdn+ZgkQhJIv5gge1jMJAdBWLLpGZhY3Rpb25sYzJwYS5jcmVhdGVkanBhcmFtZXRlcnOha2luZ3JlZGllbnRzgaJjdXJseC1zZWxmI2p1bWJmPWMycGEuYXNzZXJ0aW9ucy9jMnBhLmluZ3JlZGllbnQudjNkaGFzaFggGBq4FNeMgH46gPwehx2f5mCRCEki/mCB7WMwkB0FYstxZGlnaXRhbFNvdXJjZVR5cGV4QWh0dHA6Ly9jdi5pcHRjLm9yZy9uZXdzY29kZXMvZGlnaXRhbHNvdXJjZXR5cGUvY29tcG9zaXRlU3ludGhldGlja2Rlc2NyaXB0aW9ueB9Db21wb3NlZCBpbiB0aGUgUmVjcmFmdCBlZGl0b3IuAAAAxGp1bWIAAABAanVtZGNib3IAEQAQgAAAqgA4m3ETYzJwYS5oYXNoLmRhdGEAAAAAGGMyc2jgU6x/+X25TtCaqDd1sMv3AAAAfGNib3KlamV4Y2x1c2lvbnOBomVzdGFydBjsZmxlbmd0aBkrCGRuYW1lbmp1bWJmIG1hbmlmZXN0Y2FsZ2ZzaGEyNTZkaGFzaFggGOgJjCsnZpFz8nbtGA5i1JycZr78Wp3FvTS36j7khidjcGFkSQAAAAAAAAAAAAAAApZqdW1iAAAAJ2p1bWRjMmNsABEAEIAAAKoAOJtxA2MycGEuY2xhaW0udjIAAAACZ2Nib3Knamluc3RhbmNlSUR4LHhtcDppaWQ6MDM4NzMyN2UtMmM1ZC00NWQyLWIzYTQtZGU3MzlmYmFhM2Q1dGNsYWltX2dlbmVyYXRvcl9pbmZvo2RuYW1lanJlY3JhZnQuYWlndmVyc2lvbngoODFjZTgyZTJjNWMzY2JmYmU4YzZmYmUxNzlkNWY4ZDkxYzQwOWNlMXdvcmcuY29udGVudGF1dGguYzJwYV9yc2YwLjkwLjdpc2lnbmF0dXJleE1zZWxmI2p1bWJmPS9jMnBhL3VybjpjMnBhOjA0NjhkNzNmLTRhNmQtNGMwOS05NzUxLTY5YjM4OWViOTcwMS9jMnBhLnNpZ25hdHVyZXJjcmVhdGVkX2Fzc2VydGlvbnOComN1cmx4KnNlbGYjanVtYmY9YzJwYS5hc3NlcnRpb25zL2MycGEuYWN0aW9ucy52MmRoYXNoWCDBm1Qrvv3tTMkW7jgxDBC88l2BE7GH5tbBR0qCQvPY0KJjdXJseClzZWxmI2p1bWJmPWMycGEuYXNzZXJ0aW9ucy9jMnBhLmhhc2guZGF0YWRoYXNoWCCKLY9Jyl2cDtoJnpYOHGiCqy7zyhnVUdMAH0A7tsSx+nNnYXRoZXJlZF9hc3NlcnRpb25zgaJjdXJseC1zZWxmI2p1bWJmPWMycGEuYXNzZXJ0aW9ucy9jMnBhLmluZ3JlZGllbnQudjNkaGFzaFggGBq4FNeMgH46gPwehx2f5mCRCEki/mCB7WMwkB0FYstoZGM6dGl0bGVtUmVjcmFmdCBJbWFnZWNhbGdmc2hhMjU2AAAH3Gp1bWIAAAAoanVtZGMyY3MAEQAQgAAAqgA4m3EDYzJwYS5zaWduYXR1cmUAAAAHrGNib3LShFkDsKIBJhghglkB5zCCAeMwggGJoAMCAQICCQC33lpjQ1FuejAKBggqhkjOPQQDAjBAMR8wHQYDVQQDDBZSZWNyYWZ0IFN0YWdpbmcgRGV2IENBMRAwDgYDVQQKDAdSZWNyYWZ0MQswCQYDVQQGEwJVUzAeFw0yNjA2MTIxOTQzNTBaFw0yNzA2MTIxOTQzNTBaMDcxCzAJBgNVBAYTAlVTMRMwEQYDVQQKEwpSZWNyYWZ0IEFJMRMwEQYDVQQDEwpyZWNyYWZ0LmFpMFkwEwYHKoZIzj0CAQYIKoZIzj0DAQcDQgAESmk1WwArIPw3hty3jsWHSA/1QOhBRu9xOjpJ2/iiIghScoEVM+Lnjds/7dqmG+giFL0vEb4DoogpX6KrGLcPNaN1MHMwDAYDVR0TAQH/BAIwADAOBgNVHQ8BAf8EBAMCBsAwEwYDVR0lBAwwCgYIKwYBBQUHAwQwHQYDVR0OBBYEFC8x6QXp/eki9cuCDx2vDJDLIV39MB8GA1UdIwQYMBaAFAILKjgayqqXSv/5v5MWaO2UeHm3MAoGCCqGSM49BAMCA0gAMEUCIFPISltGl775PEkIFRTZGsevWJvWnvBrE9kWU0MPgedQAiEAtA+AZBKEQ+DdK9mUZDctB2Wlt1iAsv0GRjfeYpReMsxZAb0wggG5MIIBX6ADAgECAgkAnPloO0+gE28wCgYIKoZIzj0EAwIwQDEfMB0GA1UEAwwWUmVjcmFmdCBTdGFnaW5nIERldiBDQTEQMA4GA1UECgwHUmVjcmFmdDELMAkGA1UEBhMCVVMwHhcNMjYwNjEyMTk0MDE2WhcNMjgwNjExMTk0MDE2WjBAMR8wHQYDVQQDDBZSZWNyYWZ0IFN0YWdpbmcgRGV2IENBMRAwDgYDVQQKDAdSZWNyYWZ0MQswCQYDVQQGEwJVUzBZMBMGByqGSM49AgEGCCqGSM49AwEHA0IABEPSEAZXFWymij2K0EnzoS/9NLO8VAwu0YpyLizvyNZPfcvcoeqFhfZD8Wj/rcdb9T3ji98q1arie99B9GRog8qjQjBAMA8GA1UdEwEB/wQFMAMBAf8wDgYDVR0PAQH/BAQDAgGGMB0GA1UdDgQWBBQCCyo4Gsqql0r/+b+TFmjtlHh5tzAKBggqhkjOPQQDAgNIADBFAiBUMDSJi5WA3kIY4BfmYqk24HLs0qpjicN0NpUP4bvNxQIhAPTvHC5v8X6FS6geI7XW7h84t1i/qdkTfg0RpMKWLMFboWNwYWRZA6QAAAAAAAAAAAAAAAAAAAAAAAAAAAAAAAAAAAAAAAAAAAAAAAAAAAAAAAAAAAAAAAAAAAAAAAAAAAAAAAAAAAAAAAAAAAAAAAAAAAAAAAAAAAAAAAAAAAAAAAAAAAAAAAAAAAAAAAAAAAAAAAAAAAAAAAAAAAAAAAAAAAAAAAAAAAAAAAAAAAAAAAAAAAAAAAAAAAAAAAAAAAAAAAAAAAAAAAAAAAAAAAAAAAAAAAAAAAAAAAAAAAAAAAAAAAAAAAAAAAAAAAAAAAAAAAAAAAAAAAAAAAAAAAAAAAAAAAAAAAAAAAAAAAAAAAAAAAAAAAAAAAAAAAAAAAAAAAAAAAAAAAAAAAAAAAAAAAAAAAAAAAAAAAAAAAAAAAAAAAAAAAAAAAAAAAAAAAAAAAAAAAAAAAAAAAAAAAAAAAAAAAAAAAAAAAAAAAAAAAAAAAAAAAAAAAAAAAAAAAAAAAAAAAAAAAAAAAAAAAAAAAAAAAAAAAAAAAAAAAAAAAAAAAAAAAAAAAAAAAAAAAAAAAAAAAAAAAAAAAAAAAAAAAAAAAAAAAAAAAAAAAAAAAAAAAAAAAAAAAAAAAAAAAAAAAAAAAAAAAAAAAAAAAAAAAAAAAAAAAAAAAAAAAAAAAAAAAAAAAAAAAAAAAAAAAAAAAAAAAAAAAAAAAAAAAAAAAAAAAAAAAAAAAAAAAAAAAAAAAAAAAAAAAAAAAAAAAAAAAAAAAAAAAAAAAAAAAAAAAAAAAAAAAAAAAAAAAAAAAAAAAAAAAAAAAAAAAAAAAAAAAAAAAAAAAAAAAAAAAAAAAAAAAAAAAAAAAAAAAAAAAAAAAAAAAAAAAAAAAAAAAAAAAAAAAAAAAAAAAAAAAAAAAAAAAAAAAAAAAAAAAAAAAAAAAAAAAAAAAAAAAAAAAAAAAAAAAAAAAAAAAAAAAAAAAAAAAAAAAAAAAAAAAAAAAAAAAAAAAAAAAAAAAAAAAAAAAAAAAAAAAAAAAAAAAAAAAAAAAAAAAAAAAAAAAAAAAAAAAAAAAAAAAAAAAAAAAAAAAAAAAAAAAAAAAAAAAAAAAAAAAAAAAAAAAAAAAAAAAAAAAAAAAAAAAAAAAAAAAAAAAAAAAAAAAAAAAAAAAAAAAAAAAAAAAAAAAAAAAAAAAAAAAAAAAAAAAAAAAAAAAAAAAAAAAAAAAAAAAAAAAAAAAAAAAAAAAAAAAAAAAAAAAAAAAAAAAAAAAAAAAAAAAAAAAAAAAAAAAAAAPZYQEmPABLC1LKD/pCkuD7zVPMYiKOjJRUY+Q91bHX3Miy2Xj5Eo0kNbobD02IBxUxW8ZzFtFSCJMFkZnZK5y1VF40=</c2pa:manifest></metadata><path fill="#2A2D31" d="M0 0L1024 0L1024 1024L0 1024L0 0Z"/><path fill="#2A2D31" d="M310.639 539.703C309.658 537.799 308.704 535.881 307.777 533.95C299.582 516.808 287.939 497.181 295.826 478.148C308.144 448.421 331.779 450.329 359.013 450.31C386.407 450.29 409.006 449.893 426.132 475.915C435.139 491.028 443.577 513.332 451.169 530.094C456.402 541.806 462.716 555.133 467.312 567.007L550.521 567.017C564.189 567.017 578.089 566.734 591.642 567.324C598.36 567.617 601.149 576.91 595.601 580.872C592.089 583.38 588.883 583.055 584.87 583.166L585.074 591.422C585.369 595.114 585.381 598.329 585.398 602.037L632.138 602.227C641.893 602.27 657.943 601.721 666.706 603.832C676.168 606.031 684.842 610.789 691.781 617.587C700.196 625.996 704.636 638.386 708.926 649.43C714.014 661.897 719.038 674.389 723.999 686.906C726.302 692.705 728.767 698.449 730.809 704.34C732.085 708.02 730.68 711.706 727.277 713.563C724.579 715.271 718.296 714.583 716.698 711.562C713.5 705.518 711.027 698.01 708.522 691.569L698.085 665.359C673.305 664.813 647.365 665.062 622.503 664.953C625.974 673.85 632.069 684.278 636.16 693.046C637.734 696.419 640.631 701.419 641.589 704.901C641.922 706.117 641.958 707.396 641.696 708.629C640.271 715.237 630.977 717.001 628.156 712.243C619.108 696.984 612.905 680.299 603.988 664.843C581.506 665.31 558.244 665.003 535.671 665.018L454.629 665.146C449.764 674.198 445.029 683.319 440.424 692.505C437.964 697.477 432.844 710.284 428.196 713.563C424.526 716.153 417.666 713.706 416.416 709.401C416.052 708.592 415.701 706.759 416.055 705.9C421.834 691.863 430.36 678.972 436.124 664.877C411.877 665.193 387.179 664.988 362.897 664.994C357.268 676.6 351.489 688.133 345.563 699.59C342.871 704.908 340.599 713.865 333.74 714.373C331.409 714.54 329.111 713.744 327.384 712.171C325.807 710.737 324.928 708.692 324.973 706.562C325.042 704.231 351.277 651.499 352.687 650.403C354.562 648.946 357.718 649.379 359.943 649.452C365.566 649.66 372.53 649.858 378.16 649.468C372.481 638.392 366.489 624.986 361.596 613.521C358.806 608.124 356.965 603.313 354.739 597.679C353.506 594.719 352.165 591.806 350.775 588.917C343.957 574.748 337.82 560.305 331.213 546.038C326.02 545.688 319.167 546.103 313.464 545.857C312.102 543.421 311.626 542.322 310.639 539.703Z"/><path fill="#2A2D31" d="M568.924 590.89C569.174 594.793 569.134 598.16 569.085 602.079L584.909 602.022C584.899 598.948 584.754 594.341 585.074 591.422C585.369 595.114 585.381 598.329 585.398 602.037L632.138 602.227C641.893 602.27 657.943 601.721 666.706 603.832C676.168 606.031 684.842 610.789 691.781 617.587C700.196 625.996 704.636 638.386 708.926 649.43C714.014 661.897 719.038 674.389 723.999 686.906C726.302 692.705 728.767 698.449 730.809 704.34C732.085 708.02 730.68 711.706 727.277 713.563C724.579 715.271 718.296 714.583 716.698 711.562C713.5 705.518 711.027 698.01 708.522 691.569L698.085 665.359C673.305 664.813 647.365 665.062 622.503 664.953C625.974 673.85 632.069 684.278 636.16 693.046C637.734 696.419 640.631 701.419 641.589 704.901C641.922 706.117 641.958 707.396 641.696 708.629C640.271 715.237 630.977 717.001 628.156 712.243C619.108 696.984 612.905 680.299 603.988 664.843C581.506 665.31 558.244 665.003 535.671 665.018L454.629 665.146C449.764 674.198 445.029 683.319 440.424 692.505C437.964 697.477 432.844 710.284 428.196 713.563C424.526 716.153 417.666 713.706 416.416 709.401C416.052 708.592 415.701 706.759 416.055 705.9C421.834 691.863 430.36 678.972 436.124 664.877C411.877 665.193 387.179 664.988 362.897 664.994C357.268 676.6 351.489 688.133 345.563 699.59C342.871 704.908 340.599 713.865 333.74 714.373C331.409 714.54 329.111 713.744 327.384 712.171C325.807 710.737 324.928 708.692 324.973 706.562C325.042 704.231 351.277 651.499 352.687 650.403C354.562 648.946 357.718 649.379 359.943 649.452C365.566 649.66 372.53 649.858 378.16 649.468C372.481 638.392 366.489 624.986 361.596 613.521L433.792 613.649C445.32 613.634 461.284 614.012 472.546 613.334C472.154 605.624 475.108 602.852 482.207 602.399C510.633 601.824 539.97 602.3 568.566 602.041C568.583 598.149 568.573 594.761 568.924 590.89Z"/><path fill="#EBEAEB" d="M378.16 649.468L690.818 649.466L708.926 649.43C714.014 661.897 719.038 674.389 723.999 686.906C726.302 692.705 728.767 698.449 730.809 704.34C732.085 708.02 730.68 711.706 727.277 713.563C724.579 715.271 718.296 714.583 716.698 711.562C713.5 705.518 711.027 698.01 708.522 691.569L698.085 665.359C673.305 664.813 647.365 665.062 622.503 664.953C625.974 673.85 632.069 684.278 636.16 693.046C637.734 696.419 640.631 701.419 641.589 704.901C641.922 706.117 641.958 707.396 641.696 708.629C640.271 715.237 630.977 717.001 628.156 712.243C619.108 696.984 612.905 680.299 603.988 664.843C581.506 665.31 558.244 665.003 535.671 665.018L454.629 665.146C449.764 674.198 445.029 683.319 440.424 692.505C437.964 697.477 432.844 710.284 428.196 713.563C424.526 716.153 417.666 713.706 416.416 709.401C416.052 708.592 415.701 706.759 416.055 705.9C421.834 691.863 430.36 678.972 436.124 664.877C411.877 665.193 387.179 664.988 362.897 664.994C357.268 676.6 351.489 688.133 345.563 699.59C342.871 704.908 340.599 713.865 333.74 714.373C331.409 714.54 329.111 713.744 327.384 712.171C325.807 710.737 324.928 708.692 324.973 706.562C325.042 704.231 351.277 651.499 352.687 650.403C354.562 648.946 357.718 649.379 359.943 649.452C365.566 649.66 372.53 649.858 378.16 649.468Z"/><path fill="#B6B6BA" d="M568.924 590.89C569.174 594.793 569.134 598.16 569.085 602.079L584.909 602.022C584.899 598.948 584.754 594.341 585.074 591.422C585.369 595.114 585.381 598.329 585.398 602.037L632.138 602.227C641.893 602.27 657.943 601.721 666.706 603.832C676.168 606.031 684.842 610.789 691.781 617.587C700.196 625.996 704.636 638.386 708.926 649.43L690.818 649.466C688.882 641.136 685.753 634.395 679.777 628.185C668.183 616.14 653.254 617.877 637.7 617.868L603.072 617.883L485.771 617.732C482.395 617.743 476.825 618.17 475.007 615.554C474.669 615.068 473.656 614.191 473.159 613.804L472.546 613.334C472.154 605.624 475.108 602.852 482.207 602.399C510.633 601.824 539.97 602.3 568.566 602.041C568.583 598.149 568.573 594.761 568.924 590.89Z"/><path fill="#C6CA72" d="M310.639 539.703C309.658 537.799 308.704 535.881 307.777 533.95C299.582 516.808 287.939 497.181 295.826 478.148C308.144 448.421 331.779 450.329 359.013 450.31C386.407 450.29 409.006 449.893 426.132 475.915C435.139 491.028 443.577 513.332 451.169 530.094C442.842 529.973 434.525 530.424 426.176 530.463L368.716 530.475C358.348 530.476 344.948 530.765 334.746 530.107L323.338 530C315.552 530.457 312.122 531.207 310.639 539.703Z"/><path fill="#2A2D31" d="M315.592 512.087C352.432 512 389.272 512.101 426.111 512.388C428.187 518.094 430.671 524.615 433.307 530.085L368.479 530.042C358.439 530.034 344.518 529.615 334.746 530.107L323.338 530C321.089 524.325 318.419 517.44 315.592 512.087Z"/><path fill="#2A2D31" d="M332.449 466.61C340.342 466.212 350.563 466.58 358.648 466.498C365.223 466.43 377.792 466.085 383.779 466.801C387.742 467.292 391.616 468.344 395.284 469.925C407.892 475.379 413.1 483.857 417.986 495.937L395.25 495.919C366.704 495.787 338.157 495.833 309.612 496.057C309.324 479.655 316.966 470.934 332.449 466.61Z"/><path fill="#EBEAEB" d="M323.338 530L334.746 530.107C344.948 530.765 358.348 530.476 368.716 530.475L426.176 530.463C434.525 530.424 442.842 529.973 451.169 530.094C456.402 541.806 462.716 555.133 467.312 567.007L550.521 567.017C564.189 567.017 578.089 566.734 591.642 567.324C598.36 567.617 601.149 576.91 595.601 580.872C592.089 583.38 588.883 583.055 584.87 583.166L585.074 591.422C584.754 594.341 584.899 598.948 584.909 602.022L569.085 602.079C569.134 598.16 569.174 594.793 568.924 590.89C568.573 594.761 568.583 598.149 568.566 602.041C539.97 602.3 510.633 601.824 482.207 602.399C479.56 596.794 476.635 588.613 474.046 582.55L456.324 582.346C450.897 570.145 445.917 558.104 440.353 545.846C404.836 546.392 366.736 546.431 331.213 546.038C326.02 545.688 319.167 546.103 313.464 545.857C312.102 543.421 311.626 542.322 310.639 539.703C312.122 531.207 315.552 530.457 323.338 530Z"/><path fill="#2A2D31" d="M474.046 582.55C505.214 582.621 537.891 583.19 568.929 582.705L568.924 590.89C568.573 594.761 568.583 598.149 568.566 602.041C539.97 602.3 510.633 601.824 482.207 602.399C479.56 596.794 476.635 588.613 474.046 582.55Z"/><path fill="#C6CA72" d="M456.324 582.346L474.046 582.55C476.635 588.613 479.56 596.794 482.207 602.399C475.108 602.852 472.154 605.624 472.546 613.334C461.284 614.012 445.32 613.634 433.792 613.649L361.596 613.521C358.806 608.124 356.965 603.313 354.739 597.679C390.158 597.03 427.678 597.553 463.154 597.924L456.324 582.346Z"/><path fill="#EBEAEB" d="M494.997 318.897C494.958 313.833 493.879 308.42 497.963 304.457C501.405 301.123 507.027 301.099 510.71 304.065C515.643 308.037 514.604 313.05 514.426 318.607C526.223 319.513 537.184 320.706 548.757 323.427C582.842 331.479 613.531 350.046 636.483 376.499C641.748 382.657 655.869 399.726 655.668 407.841C655.63 409.34 654.704 411.151 653.404 411.994C648.91 414.91 642.858 413.928 637.396 415.575C629.99 417.807 626.388 427.36 619.017 426.296C615.657 425.812 611.245 420.426 608.021 418.47C598.252 412.544 583.382 411.968 573.616 418.233C569.677 420.76 564.298 427.188 559.817 426.616C556.895 426.243 551.118 420.892 548.162 419.14C539.343 413.915 527.026 413.09 518.186 418.621C516.686 419.559 513.706 421.53 513.528 423.271C512.693 431.465 513.165 441.475 513.248 449.786C513.462 474.141 513.494 498.497 513.343 522.853C513.305 531.582 513.353 540.488 513.09 549.14C512.952 553.692 506.894 558.227 502.371 556.771C497.611 555.239 496.78 551.118 496.62 546.611C496.433 538.98 496.502 531.295 496.501 523.636L496.52 480.299L496.569 442.223C496.581 436.241 496.376 427.138 496.776 421.404L496.224 420.968C490.142 416.235 483.158 413.923 475.417 414.875C471.493 415.36 467.724 416.709 464.383 418.825C451.614 427.086 455.211 431.256 439.636 418.467C431.994 412.191 413.14 411.723 404.653 417.843C388.222 432.3 390.941 425.388 374.465 415.789C370.23 413.322 355.243 417.033 353.972 408.503C352.694 401.893 364.054 387.996 368.326 382.514C395.523 348.227 435.049 325.933 478.461 320.393C483.958 319.736 489.472 319.238 494.997 318.897Z"/><path fill="#C6CA72" d="M494.997 318.897C494.958 313.833 493.879 308.42 497.963 304.457C501.405 301.123 507.027 301.099 510.71 304.065C515.643 308.037 514.604 313.05 514.426 318.607C508.223 318.469 501.139 318.382 494.997 318.897Z"/><path fill="#B6B6BA" d="M504.775 338.404C507.153 338.423 514.805 344.559 517.268 346.342C536.876 360.531 545.558 379.805 552.88 401.979C539.595 398.605 527.788 397.735 514.332 402.624C511.614 403.612 507.897 407.209 505.213 407.039C489.396 396.685 474.149 398.111 456.929 403.677C468.025 371.644 477.003 357.391 504.775 338.404Z"/><path fill="#2A2D31" d="M480.541 336.247L480.8 336.659C477.34 340.029 474.429 342.443 471.1 346.105C457.135 361.751 447.082 380.487 441.766 400.773C424.85 395.768 406.456 396.965 391.655 407.026C388.482 404.746 387.153 403.792 383.663 402.099C381.398 401.124 378.23 400.18 375.828 399.387C377.343 397.045 378.739 395.006 380.466 392.801C404.927 361.334 440.966 340.968 480.541 336.247Z"/><path fill="#2A2D31" d="M530.217 335.892C531.566 336.052 532.912 336.237 534.254 336.448C565.012 341.274 597.497 358.032 618.905 380.412C625.018 386.803 629.285 392.532 634.426 399.589C630.941 400.484 630 400.775 626.74 402.324C624.678 403.705 622.442 405.366 620.401 406.82C618.374 405.425 616.511 404.265 614.271 403.234C600.134 396.8 584.003 396.321 569.509 401.905C562.635 376.745 550.244 353.017 530.217 335.892Z"/><path fill="#B6B6BA" d="M313.464 545.857C319.167 546.103 326.02 545.688 331.213 546.038C337.82 560.305 343.957 574.748 350.775 588.917C352.165 591.806 353.506 594.719 354.739 597.679C356.965 603.313 358.806 608.124 361.596 613.521C366.489 624.986 372.481 638.392 378.16 649.468C372.53 649.858 365.566 649.66 359.943 649.452C356.911 640.112 348.928 624.387 344.679 614.771C334.517 591.772 323.479 568.939 313.464 545.857Z"/></svg>